<?xml version="1.0" encoding="UTF-8" standalone="no"?>
<!-- Created with Inkscape (http://www.inkscape.org/) -->
<svg
   xmlns:dc="http://purl.org/dc/elements/1.1/"
   xmlns:cc="http://creativecommons.org/ns#"
   xmlns:rdf="http://www.w3.org/1999/02/22-rdf-syntax-ns#"
   xmlns:svg="http://www.w3.org/2000/svg"
   xmlns="http://www.w3.org/2000/svg"
   xmlns:xlink="http://www.w3.org/1999/xlink"
   xmlns:sodipodi="http://sodipodi.sourceforge.net/DTD/sodipodi-0.dtd"
   xmlns:inkscape="http://www.inkscape.org/namespaces/inkscape"
   version="1.0"
   width="221.3629"
   height="204.67679"
   id="svg2633"
   sodipodi:version="0.32"
   inkscape:version="0.46"
   sodipodi:docname="Sunny_and_Cloudy.svg"
   inkscape:output_extension="org.inkscape.output.svg.inkscape">
  <metadata
     id="metadata3035">
    <rdf:RDF>
      <cc:Work
         rdf:about="">
        <dc:format>image/svg+xml</dc:format>
        <dc:type
           rdf:resource="http://purl.org/dc/dcmitype/StillImage" />
      </cc:Work>
    </rdf:RDF>
  </metadata>
  <sodipodi:namedview
     inkscape:window-height="642"
     inkscape:window-width="640"
     inkscape:pageshadow="2"
     inkscape:pageopacity="0.0"
     guidetolerance="10.0"
     gridtolerance="10.0"
     objecttolerance="10.0"
     borderopacity="1.0"
     bordercolor="#666666"
     pagecolor="#ffffff"
     id="base"
     showgrid="false"
     inkscape:zoom="0.40670409"
     inkscape:cx="372.04724"
     inkscape:cy="526.18109"
     inkscape:window-x="2"
     inkscape:window-y="20"
     inkscape:current-layer="svg2633" />
  <defs
     id="defs2635">
    <inkscape:perspective
       sodipodi:type="inkscape:persp3d"
       inkscape:vp_x="0 : 526.18109 : 1"
       inkscape:vp_y="0 : 1000 : 0"
       inkscape:vp_z="744.09448 : 526.18109 : 1"
       inkscape:persp3d-origin="372.04724 : 350.78739 : 1"
       id="perspective3037" />
    <linearGradient
       id="linearGradient3359">
      <stop
         id="stop3361"
         style="stop-color:#ffffff;stop-opacity:1"
         offset="0" />
      <stop
         id="stop3363"
         style="stop-color:#ffffff;stop-opacity:0"
         offset="1" />
    </linearGradient>
    <linearGradient
       x1="-139.40105"
       y1="490.71738"
       x2="-111.84524"
       y2="632.13873"
       id="linearGradient2778"
       xlink:href="#linearGradient3359"
       gradientUnits="userSpaceOnUse" />
    <linearGradient
       id="linearGradient3341">
      <stop
         id="stop3343"
         style="stop-color:#96beff;stop-opacity:1"
         offset="0" />
      <stop
         id="stop3345"
         style="stop-color:#09719f;stop-opacity:1"
         offset="1" />
    </linearGradient>
    <linearGradient
       x1="-90.913727"
       y1="535.16406"
       x2="-83.84375"
       y2="670.52454"
       id="linearGradient2776"
       xlink:href="#linearGradient3341"
       gradientUnits="userSpaceOnUse"
       gradientTransform="translate(533.361,20.2031)" />
    <linearGradient
       id="linearGradient3249">
      <stop
         id="stop3251"
         style="stop-color:#ffffff;stop-opacity:1"
         offset="0" />
      <stop
         id="stop3253"
         style="stop-color:#ffffff;stop-opacity:0"
         offset="1" />
    </linearGradient>
    <linearGradient
       x1="369.71582"
       y1="452.33157"
       x2="389.91888"
       y2="549.4386"
       id="linearGradient2774"
       xlink:href="#linearGradient3249"
       gradientUnits="userSpaceOnUse" />
    <filter
       id="filter3227">
      <feGaussianBlur
         id="feGaussianBlur3229"
         stdDeviation="2.5714285"
         inkscape:collect="always" />
    </filter>
    <linearGradient
       id="linearGradient2439">
      <stop
         id="stop2441"
         style="stop-color:#ffff00;stop-opacity:1"
         offset="0" />
      <stop
         id="stop2451"
         style="stop-color:#ffd400;stop-opacity:1"
         offset="0.5" />
      <stop
         id="stop2443"
         style="stop-color:#ffa900;stop-opacity:1"
         offset="1" />
    </linearGradient>
    <radialGradient
       cx="-468.77777"
       cy="440.96008"
       r="128.57143"
       fx="-468.77777"
       fy="440.96008"
       id="radialGradient2772"
       xlink:href="#linearGradient2439"
       gradientUnits="userSpaceOnUse"
       gradientTransform="matrix(-2.06172e-2,1.02202,-0.999797,-2.0169e-2,-37.5723,928.952)" />
    <linearGradient
       id="linearGradient3272">
      <stop
         id="stop3274"
         style="stop-color:#ffffff;stop-opacity:0.375"
         offset="0" />
      <stop
         id="stop3276"
         style="stop-color:#ffffff;stop-opacity:0"
         offset="1" />
    </linearGradient>
    <linearGradient
       x1="404.01804"
       y1="366.19507"
       x2="404.01804"
       y2="589.71234"
       id="linearGradient2770"
       xlink:href="#linearGradient3272"
       gradientUnits="userSpaceOnUse"
       gradientTransform="translate(-103.036,-290.924)" />
    <linearGradient
       id="linearGradient2429">
      <stop
         id="stop2431"
         style="stop-color:#fffdbc;stop-opacity:1"
         offset="0" />
      <stop
         id="stop2433"
         style="stop-color:#fcff00;stop-opacity:1"
         offset="1" />
    </linearGradient>
    <radialGradient
       cx="377.14288"
       cy="404.3631"
       r="216.79578"
       fx="377.14288"
       fy="404.3631"
       id="radialGradient2768"
       xlink:href="#linearGradient2429"
       gradientUnits="userSpaceOnUse"
       gradientTransform="matrix(1.26528e-7,-1.00078,1.05272,1.32511e-7,-59.9651,792.657)" />
  </defs>
  <g
     id="layer1"
     transform="translate(-239.31855,-430.02379)">
    <g
       transform="matrix(0.464478,0,0,0.464478,216.70693,423.09033)"
       id="g2757">
      <g
         id="g2739">
        <path
           d="M 527.11526,565.41189 C 526.52422,566.04704 448.85173,528.96653 448.14814,529.47417 C 447.44455,529.9818 458.14224,615.38402 457.35314,615.74464 C 456.56403,616.10526 398.9941,552.12336 398.1498,552.3231 C 397.3055,552.52284 374.50687,635.51804 373.63983,635.54923 C 372.77279,635.58042 344.06992,554.43779 343.21345,554.29923 C 342.35699,554.16067 289.53291,622.11357 288.71993,621.81058 C 287.90696,621.5076 292.4409,535.55747 291.70265,535.1017 C 290.96441,534.64593 216.15687,577.21133 215.52173,576.62029 C 214.88659,576.02926 251.96709,498.35676 251.45946,497.65317 C 250.95182,496.94958 165.5496,507.64728 165.18898,506.85817 C 164.82837,506.06907 228.81026,448.49913 228.61052,447.65484 C 228.41078,446.81054 145.41559,424.01191 145.3844,423.14487 C 145.35321,422.27783 226.49583,393.57495 226.6344,392.71849 C 226.77296,391.86202 158.82005,339.03795 159.12304,338.22497 C 159.42603,337.41199 245.37615,341.94594 245.83192,341.20769 C 246.28769,340.46944 203.72229,265.66191 204.31333,265.02677 C 204.90437,264.39162 282.57686,301.47213 283.28045,300.96449 C 283.98404,300.45686 273.28635,215.05464 274.07545,214.69402 C 274.86456,214.3334 332.43449,278.3153 333.27879,278.11556 C 334.12308,277.91582 356.92172,194.92062 357.78876,194.88943 C 358.6558,194.85824 387.35867,276.00087 388.21514,276.13943 C 389.0716,276.27799 441.89568,208.32509 442.70865,208.62808 C 443.52163,208.93106 438.98769,294.88119 439.72593,295.33696 C 440.46418,295.79273 515.27171,253.22733 515.90686,253.81836 C 516.542,254.4094 479.4615,332.0819 479.96913,332.78549 C 480.47677,333.48908 565.87899,322.79138 566.23961,323.58049 C 566.60022,324.36959 502.61832,381.93953 502.81807,382.78382 C 503.01781,383.62812 586.013,406.42675 586.04419,407.29379 C 586.07538,408.16083 504.93276,436.86371 504.79419,437.72017 C 504.65563,438.57664 572.60854,491.40071 572.30555,492.21369 C 572.00256,493.02667 486.05244,488.49272 485.59667,489.23097 C 485.1409,489.96921 527.7063,564.77675 527.11526,565.41189 z"
           transform="translate(-96.7026,-179.962)"
           id="path2741"
           style="fill:#ffbb00;fill-opacity:1;fill-rule:evenodd;stroke:none;stroke-width:1px;stroke-linecap:butt;stroke-linejoin:miter;marker:none;stroke-miterlimit:4;stroke-dasharray:none;stroke-dashoffset:0;stroke-opacity:1;visibility:visible;display:inline;overflow:visible" />
        <path
           d="M 515.48302,554.58745 C 514.99345,555.11356 448.73094,529.05368 448.14814,529.47417 C 447.56534,529.89465 451.40232,600.99399 450.74869,601.29269 C 450.09505,601.5914 398.84915,552.15765 398.1498,552.3231 C 397.45045,552.48855 373.78683,619.64412 373.06863,619.66996 C 372.35044,619.69579 343.92289,554.414 343.21345,554.29923 C 342.50402,554.18445 294.94236,607.17243 294.26895,606.92146 C 293.59554,606.67049 292.31416,535.47923 291.70265,535.1017 C 291.09115,534.72418 226.87228,565.47763 226.34617,564.98806 C 225.82007,564.49849 251.87994,498.23597 251.45946,497.65317 C 251.03897,497.07037 179.93964,500.90736 179.64093,500.25372 C 179.34222,499.60008 228.77597,448.35419 228.61052,447.65484 C 228.44507,446.95548 161.2895,423.29186 161.26367,422.57367 C 161.23783,421.85548 226.51962,393.42792 226.6344,392.71849 C 226.74917,392.00906 173.76119,344.4474 174.01216,343.77399 C 174.26313,343.10058 245.4544,341.8192 245.83192,341.20769 C 246.20945,340.59618 215.456,276.37732 215.94557,275.85121 C 216.43514,275.3251 282.69765,301.38498 283.28045,300.96449 C 283.86325,300.54401 280.02627,229.44467 280.6799,229.14597 C 281.33354,228.84726 332.57944,278.28101 333.27879,278.11556 C 333.97814,277.95011 357.64176,210.79454 358.35995,210.7687 C 359.07815,210.74287 387.5057,276.02466 388.21514,276.13943 C 388.92457,276.25421 436.48623,223.26623 437.15964,223.5172 C 437.83305,223.76817 439.11443,294.95943 439.72593,295.33696 C 440.33744,295.71448 504.55631,264.96103 505.08241,265.4506 C 505.60852,265.94017 479.54865,332.20269 479.96913,332.78549 C 480.38962,333.36829 551.48895,329.5313 551.78766,330.18494 C 552.08637,330.83857 502.65262,382.08447 502.81807,382.78382 C 502.98352,383.48317 570.13909,407.1468 570.16492,407.86499 C 570.19075,408.58318 504.90897,437.01074 504.79419,437.72017 C 504.67942,438.4296 557.6674,485.99126 557.41643,486.66467 C 557.16545,487.33808 485.97419,488.61946 485.59667,489.23097 C 485.21914,489.84248 515.97259,554.06134 515.48302,554.58745 z"
           transform="translate(-96.7026,-179.962)"
           id="path2743"
           style="fill:url(#radialGradient2768);fill-opacity:1;fill-rule:evenodd;stroke:none;stroke-width:1px;stroke-linecap:butt;stroke-linejoin:miter;marker:none;stroke-miterlimit:4;stroke-dasharray:none;stroke-dashoffset:0;stroke-opacity:1;visibility:visible;display:inline;overflow:visible" />
        <path
           d="M 264.65193,75.63857 C 257.53702,75.30633 251.03128,79.63506 248.58943,86.32607 C 248.19643,87.39996 247.61861,88.93803 247.24568,89.95107 C 246.08122,93.11425 245.09356,95.7473 244.33943,97.70107 C 243.91333,98.805 243.65356,99.48086 243.40193,100.07607 C 243.28634,100.3495 243.3407,100.25313 242.96443,101.01357 C 242.432,102.08963 242.97594,101.08353 242.52693,101.79482 C 241.95139,102.70656 242.56021,101.87859 241.83943,102.70107 C 240.81841,103.86615 240.88304,103.84385 240.62068,104.16982 C 240.19186,104.33998 239.58436,104.58832 238.18318,104.91982 C 236.79312,105.24868 236.17364,105.31665 235.71443,105.35732 C 235.33474,105.18333 235.39077,105.16905 233.93318,104.57607 C 232.91245,104.16081 233.80428,104.62037 232.90193,104.07607 C 232.11696,103.60257 232.97522,104.17358 232.18318,103.57607 C 231.58533,103.12507 231.74533,103.2391 231.37068,102.91982 C 230.84076,102.46822 230.30743,101.99797 229.46443,101.23232 C 227.90547,99.81642 225.82546,97.90783 223.37068,95.60732 C 222.84414,95.11387 221.64753,93.91343 220.55818,92.88857 C 215.73276,88.34842 208.63824,87.18319 202.61411,89.94139 C 196.58999,92.69959 192.83658,98.83163 193.12068,105.45107 C 193.16779,106.57168 193.23089,108.24007 193.27693,109.38857 C 193.41481,112.82831 193.54084,115.68195 193.58943,117.66982 C 193.61424,118.6849 193.62668,119.33109 193.62068,120.16982 C 193.61501,120.96177 193.6281,120.653 193.58943,121.23232 C 193.53576,122.0364 193.6288,121.18225 193.46443,122.13857 C 193.27737,123.22685 193.53921,122.18163 193.18318,123.23232 C 192.68683,124.69708 192.74016,124.63741 192.62068,125.04482 C 192.29372,125.36339 191.82706,125.822 190.65193,126.66982 C 189.49901,127.50165 188.93094,127.80258 188.52693,128.01357 C 188.09152,127.99851 188.1714,127.97284 186.62068,127.98232 C 185.44485,127.98951 186.33228,128.0513 185.46443,127.91982 C 184.64854,127.79621 185.76765,128.00685 184.58943,127.70107 C 183.87268,127.51506 184.05503,127.57072 183.58943,127.41982 C 182.91209,127.20029 182.24441,126.95745 181.18318,126.57607 C 179.24014,125.87777 176.607,124.89801 173.43318,123.70107 C 172.52524,123.35865 170.96751,122.77772 169.77693,122.32607 C 163.58947,119.98074 156.59807,121.61133 152.08656,126.45194 C 147.57506,131.29255 146.43996,138.38128 149.21443,144.38857 C 149.73445,145.5097 150.45201,147.0126 150.87068,147.91982 C 152.29683,151.01013 153.44906,153.58086 154.27693,155.45107 C 154.76181,156.54643 155.07235,157.21308 155.30818,157.79482 C 155.45226,158.15025 155.39401,157.99969 155.65193,158.76357 C 156.06071,159.9742 155.75844,158.86461 155.93318,159.63857 C 156.20628,160.84822 156.01945,159.6668 156.08943,160.73232 C 156.18992,162.26235 156.20131,162.19367 156.24568,162.60732 C 156.0641,163.03056 155.79315,163.64742 155.02693,164.88857 C 154.27011,166.11445 153.88568,166.62929 153.58943,166.98232 C 153.19976,167.12748 153.24549,167.06349 151.80818,167.66982 C 150.83833,168.07895 151.93529,167.71893 150.74568,168.01357 C 149.78449,168.25163 150.61037,168.0974 149.87068,168.20107 C 149.17138,168.29908 149.37095,168.24983 148.80818,168.29482 C 148.01705,168.35807 147.32025,168.40076 146.27693,168.45107 C 144.26677,168.548 141.41841,168.65209 137.99568,168.76357 C 136.91478,168.79878 135.25736,168.8528 134.08943,168.88857 C 127.46602,169.08647 121.62253,173.27674 119.31015,179.48654 C 116.99777,185.69634 118.67738,192.68803 123.55818,197.16982 C 124.52974,198.06342 125.76248,199.17553 126.43318,199.79482 C 128.95883,202.12686 131.0527,204.04506 132.49568,205.41982 C 133.16425,206.05678 133.69041,206.57364 134.33943,207.23232 C 134.84407,207.74448 134.64368,207.5083 135.05818,207.98232 C 135.92771,208.97671 135.12117,208.00682 135.58943,208.66982 C 136.07806,209.36166 135.65845,208.60657 136.18318,209.66982 C 136.88804,211.09808 136.88829,211.02315 137.08943,211.38857 C 137.08225,211.84619 137.03588,212.48112 136.80818,213.88857 C 136.58126,215.29126 136.41543,215.885 136.27693,216.32607 C 135.97628,216.60377 135.99455,216.56336 134.87068,217.70107 C 134.10098,218.48025 134.94262,217.74511 134.02693,218.41982 C 133.36723,218.90591 134.36491,218.28025 133.27693,218.91982 C 132.72737,219.24287 132.94844,219.10899 132.33943,219.41982 C 131.59593,219.7993 130.97133,220.08331 130.05818,220.51357 C 128.15784,221.40898 125.59555,222.59461 122.52693,223.98232 C 121.66669,224.37134 120.15584,225.05409 118.99568,225.57607 C 112.9745,228.30372 109.19862,234.39958 109.43846,241.00542 C 109.67829,247.61126 113.8863,253.41725 120.08943,255.70107 C 121.27856,256.13677 122.84084,256.71131 123.74568,257.04482 C 126.88697,258.20267 129.47525,259.18236 131.46443,259.95107 C 132.5792,260.38186 133.25616,260.64172 133.83943,260.88857 C 134.36399,261.11056 134.18642,261.01814 134.80818,261.32607 C 135.89842,261.866 134.88429,261.31815 135.58943,261.76357 C 136.30608,262.21627 135.56355,261.66124 136.46443,262.45107 C 137.63011,263.47307 137.60691,263.40712 137.93318,263.66982 C 138.1033,264.09852 138.35179,264.70658 138.68318,266.10732 C 138.8911,266.98616 138.89792,267.18489 139.02693,268.63857 C 139.42941,273.20396 141.73645,277.3886 145.38213,280.16597 C 149.0278,282.94334 153.6748,284.05648 158.18318,283.23232 C 231.76922,284.35106 321.25357,255.4129 388.93318,212.60732 C 393.60245,210.82747 397.1965,207.00303 398.68318,202.23232 C 398.49782,202.82601 398.24001,203.71615 399.68318,200.16982 C 400.1001,199.14532 399.64164,200.03596 400.18318,199.13857 C 400.65935,198.34951 400.09139,199.20389 400.68318,198.41982 C 400.9792,198.02762 400.73126,198.35722 401.37068,197.60732 C 401.99157,196.87914 402.41809,196.40228 403.02693,195.73232 C 404.45106,194.16521 406.3569,192.08605 408.65193,189.63857 C 409.30393,188.94326 410.46876,187.71974 411.33943,186.79482 C 415.87958,181.9694 417.04481,174.87488 414.28661,168.85075 C 411.52841,162.82663 405.39637,159.07322 398.77693,159.35732 C 397.34958,159.41669 395.68011,159.51395 394.90193,159.54482 C 391.55131,159.67773 388.74201,159.77511 386.62068,159.82607 C 385.60099,159.85057 384.9118,159.86355 384.08943,159.85732 C 383.28446,159.85123 383.65031,159.86585 383.05818,159.82607 C 382.23202,159.77058 383.13143,159.86446 382.18318,159.70107 C 381.07604,159.51029 382.1004,159.77342 381.05818,159.41982 C 379.58153,158.91883 379.649,158.97526 379.24568,158.85732 C 378.92726,158.53057 378.46712,158.06172 377.62068,156.88857 C 376.77742,155.71981 376.48422,155.16304 376.27693,154.76357 C 376.29187,154.3279 376.31813,154.40775 376.30818,152.85732 C 376.30068,151.68917 376.23719,152.58432 376.37068,151.70107 C 376.4878,150.92609 376.23773,152.21465 376.58943,150.85732 C 376.77299,150.14888 376.71488,150.33868 376.87068,149.85732 C 377.11723,149.09555 377.3642,148.39562 377.71443,147.41982 C 378.40611,145.49273 379.3901,142.85392 380.58943,139.66982 C 380.88348,138.88914 381.47507,137.33646 381.96443,136.04482 C 384.32082,129.84975 382.6887,122.84465 377.83682,118.32904 C 372.98494,113.81343 365.88084,112.68779 359.87068,115.48232 C 358.76176,115.99721 357.2614,116.71265 356.33943,117.13857 C 353.29651,118.5443 350.74973,119.68445 348.80818,120.54482 C 347.72328,121.02557 347.05793,121.33521 346.46443,121.57607 C 346.12393,121.71426 346.26744,121.65891 345.49568,121.91982 C 344.10269,122.39074 345.38431,122.03545 344.65193,122.20107 C 343.5542,122.44931 344.61091,122.28581 343.52693,122.35732 C 341.99632,122.4583 342.06543,122.4691 341.65193,122.51357 C 341.22856,122.3319 340.61306,122.06184 339.37068,121.29482 C 338.14984,120.54111 337.65864,120.15156 337.30818,119.85732 C 337.16186,119.46323 337.20098,119.52738 336.58943,118.07607 C 336.17705,117.09741 336.53488,118.15218 336.24568,116.98232 C 336.00597,116.01267 336.1583,116.82397 336.05818,116.10732 C 335.95912,115.39824 336.00763,115.61959 335.96443,115.07607 C 335.89827,114.24379 335.85671,113.56075 335.80818,112.54482 C 335.71122,110.51498 335.60528,107.67564 335.49568,104.26357 C 335.46043,103.16597 335.40542,101.50812 335.37068,100.35732 C 335.17278,93.73391 330.98251,87.89042 324.77271,85.57804 C 318.56291,83.26566 311.57122,84.94527 307.08943,89.82607 C 306.19277,90.80092 305.09307,92.02282 304.49568,92.66982 C 302.16364,95.19547 300.24544,97.28934 298.87068,98.73232 C 298.23372,99.40089 297.71686,99.92705 297.05818,100.57607 C 296.54602,101.08071 296.7822,100.88032 296.30818,101.29482 C 295.31379,102.16435 296.28368,101.35781 295.62068,101.82607 C 294.92884,102.3147 295.68393,101.89509 294.62068,102.41982 C 293.19242,103.12468 293.26735,103.12493 292.90193,103.32607 C 292.44431,103.31889 291.80938,103.27252 290.40193,103.04482 C 288.99968,102.81797 288.40538,102.65205 287.96443,102.51357 C 287.68641,102.21266 287.72811,102.23167 286.58943,101.10732 C 285.81459,100.34223 286.55196,101.18762 285.87068,100.26357 C 285.38853,99.60962 286.01866,100.61498 285.37068,99.51357 C 285.05161,98.97122 285.18866,99.19849 284.87068,98.57607 C 284.42807,97.70969 284.12592,97.13224 283.74568,96.32607 C 282.88399,94.49916 281.7186,91.87912 280.30818,88.76357 C 279.92477,87.91663 279.24302,86.40595 278.71443,85.23232 C 276.20367,79.64467 270.77043,75.93799 264.65193,75.63857 L 264.65193,75.63857 z"
           id="path2745"
           style="fill:url(#linearGradient2770);fill-opacity:1;fill-rule:evenodd;stroke:none;stroke-width:1px;stroke-linecap:butt;stroke-linejoin:miter;marker:none;stroke-miterlimit:4;stroke-dashoffset:0;stroke-opacity:1;visibility:visible;display:inline;overflow:visible" />
        <path
           d="M -342.85713,443.79074 C -342.83732,514.81278 -400.40651,572.39803 -471.42855,572.39803 C -542.4506,572.39803 -600.01979,514.81278 -599.99998,443.79074 C -600.01979,372.7687 -542.4506,315.18345 -471.42856,315.18345 C -400.40651,315.18345 -342.83732,372.7687 -342.85713,443.79074 z"
           transform="matrix(0.844444,0,0,0.844444,667.107,-139.499)"
           id="path2747"
           style="fill:url(#radialGradient2772);fill-opacity:1;fill-rule:evenodd;stroke:none;stroke-width:1px;stroke-linecap:butt;stroke-linejoin:miter;marker:none;stroke-miterlimit:4;stroke-dasharray:none;stroke-dashoffset:0;stroke-opacity:1;visibility:visible;display:inline;overflow:visible;filter:url(#filter3227)" />
        <path
           d="M 372.0625,441.5625 C 332.77887,441.5625 298.60868,469.19727 289.875,506.21875 C 287.65388,515.62804 289.47511,525.53751 294.89667,533.54218 C 300.31823,541.54685 308.84452,546.91498 318.40625,548.34375 C 326.81968,549.59362 336.33524,549.76246 349.15625,548.90625 C 372.18034,547.36866 397.66964,541.21528 424.96875,532.71875 C 435.12978,529.55462 443.26668,521.88601 447.02684,511.93013 C 450.787,501.97426 449.75114,490.84126 444.21875,481.75 C 429.50359,457.58921 402.16611,441.5625 372.0625,441.5625 z"
           transform="translate(-111.117,-303.046)"
           id="path2749"
           style="fill:url(#linearGradient2774);fill-opacity:1;fill-rule:evenodd;stroke:none;stroke-width:1px;stroke-linecap:butt;stroke-linejoin:miter;marker:none;stroke-miterlimit:4;stroke-dashoffset:0;stroke-opacity:1;visibility:visible;display:inline;overflow:visible" />
      </g>
      <g
         transform="translate(-115.157,-292.944)"
         id="g2751">
        <path
           d="M 417.20429,525.07805 C 384.72568,525.07805 355.85117,540.56715 337.57929,564.57805 C 333.58955,563.83238 329.47179,563.45305 325.26679,563.45305 C 288.46491,563.45305 258.61053,593.30745 258.61054,630.1093 C 258.61054,666.91118 288.46491,696.79679 325.26679,696.7968 C 332.01831,696.7968 338.52985,695.79068 344.67304,693.9218 C 362.89773,713.10393 388.67653,725.07803 417.20429,725.07805 C 433.16638,725.07805 448.25057,721.33192 461.64179,714.6718 C 475.03301,721.33192 490.1172,725.07804 506.07929,725.07805 C 538.95206,725.07805 568.12852,709.18191 586.36054,684.6718 C 616.25516,684.4192 640.42304,660.06319 640.42304,630.1093 C 640.42304,602.50043 619.89251,579.68271 593.26679,576.07805 C 576.11534,545.63808 543.48595,525.07805 506.07929,525.07805 C 490.11473,525.07805 475.03455,528.82225 461.64179,535.4843 C 448.24903,528.82225 433.16885,525.07805 417.20429,525.07805 z"
           id="path2753"
           style="fill:url(#linearGradient2776);fill-opacity:1;fill-rule:evenodd;stroke:none;stroke-width:1px;stroke-linecap:butt;stroke-linejoin:miter;marker:none;stroke-miterlimit:4;stroke-dasharray:none;stroke-dashoffset:0;stroke-opacity:1;visibility:visible;display:inline;overflow:visible" />
        <path
           d="M -116.15625,516.8125 C -144.64513,516.8125 -170.35351,530.66326 -186.28125,551.59375 C -189.05033,555.23789 -193.46943,556.96389 -197.96875,556.125 C -201.23254,555.515 -204.61459,555.1875 -208.09375,555.1875 C -237.17211,555.1875 -262.8125,580.82795 -262.8125,609.90625 C -262.8125,613.73514 -262.52423,615.04073 -262.625,613.4375 C -261.75316,627.16565 -251.74518,638.58501 -238.25,641.25 C -206.17911,647.59387 -162.70249,644.72967 -111.03125,631.90625 C -69.335603,621.5585 -24.461047,605.73349 20.09375,587.90625 C 30.078443,583.90252 37.192608,574.90607 38.78681,564.26735 C 40.381012,553.62862 36.216326,542.94205 27.84375,536.1875 C 12.872939,524.13307 -6.5169017,516.8125 -27.28125,516.8125 C -41.232706,516.8125 -54.699523,520.1454 -66.40625,525.96875 C -69.777834,527.64583 -73.659666,527.64583 -77.03125,525.96875 C -88.73797,520.1454 -102.20479,516.8125 -116.15625,516.8125 z"
           transform="translate(531.34,16.1624)"
           id="path2755"
           style="fill:url(#linearGradient2778);fill-opacity:1;fill-rule:evenodd;stroke:none;stroke-width:1px;stroke-linecap:butt;stroke-linejoin:miter;marker:none;stroke-miterlimit:4;stroke-dashoffset:0;stroke-opacity:1;visibility:visible;display:inline;overflow:visible" />
      </g>
    </g>
  </g>
</svg>
